<svg xmlns="http://www.w3.org/2000/svg" height="599pt" version="1.1" viewBox="-52 0 599 599.318" width="599pt">
<g id="surface1">
<path d="M 41.441406 144.585938 L 93.082031 599 L 402.90625 599 L 454.546875 144.585938 Z M 41.441406 144.585938 " style=" stroke:none;fill-rule:nonzero;fill:rgb(85.490196%,86.666667%,87.45098%);fill-opacity:1;" />
<path d="M 0.132812 61.964844 L 495.855469 61.964844 L 495.855469 144.585938 L 0.132812 144.585938 Z M 0.132812 61.964844 " style=" stroke:none;fill-rule:nonzero;fill:rgb(52.941176%,32.54902%,22.352941%);fill-opacity:1;" />
<path d="M 41.441406 61.964844 L 454.546875 61.964844 L 444.21875 0 L 51.769531 0 Z M 41.441406 61.964844 " style=" stroke:none;fill-rule:nonzero;fill:rgb(45.882353%,27.45098%,18.039216%);fill-opacity:1;" />
<path d="M 464.871094 237.535156 L 433.890625 464.742188 L 62.097656 464.742188 L 31.113281 237.535156 Z M 464.871094 237.535156 " style=" stroke:none;fill-rule:nonzero;fill:rgb(99.215686%,71.372549%,18.431373%);fill-opacity:1;" />
<path d="M 444.21875 0 L 361.597656 0 L 299.632812 61.964844 L 454.546875 61.964844 Z M 444.21875 0 " style=" stroke:none;fill-rule:nonzero;fill:rgb(43.137255%,25.882353%,16.862745%);fill-opacity:1;" />
<path d="M 495.855469 61.964844 L 237.667969 61.964844 L 155.046875 144.585938 L 495.855469 144.585938 Z M 495.855469 61.964844 " style=" stroke:none;fill-rule:nonzero;fill:rgb(49.019608%,29.019608%,19.607843%);fill-opacity:1;" />
<path d="M 415.816406 485.394531 L 418.160156 464.742188 L 77.828125 464.742188 L 80.171875 485.394531 Z M 415.816406 485.394531 " style=" stroke:none;fill-rule:nonzero;fill:rgb(78.039216%,79.215686%,80%);fill-opacity:1;" />
<path d="M 452.199219 165.242188 L 454.546875 144.585938 L 41.441406 144.585938 L 43.785156 165.242188 Z M 452.199219 165.242188 " style=" stroke:none;fill-rule:nonzero;fill:rgb(78.039216%,79.215686%,80%);fill-opacity:1;" />
<path d="M 464.871094 237.535156 L 401.089844 237.535156 C 340.941406 340.808594 247.992188 413.101562 144.71875 464.742188 L 433.890625 464.742188 Z M 464.871094 237.535156 " style=" stroke:none;fill-rule:nonzero;fill:rgb(100%,63.529412%,18.823529%);fill-opacity:1;" />
</g>
</svg>